# xmcd
#
# Track frame offsets: 
#        150
#        11819
#        29153
#        46658
#        63916
#        81215
#        92204
#        112838
#        127220
#        145518
#        164892
#        182238
#        200697
#
# Disc length: 2923 seconds
#
# Revision: 0
# Processed by: cddbd v1.5.2PL0 Copyright (c) Steve Scherf et al.
# Submitted via: ExactAudioCopy v1.3
#
DISCID=bb0b690d
DTITLE=Sven Zetterberg - Hollerin' Up A Storm
DYEAR=2007
DGENRE=Chicago Blues
TTITLE0=Juke Joint
TTITLE1=Too Old For The City
TTITLE2=Ain't No Hurry To Go Home
TTITLE3=Hollerin' Up A Storm
TTITLE4=Middle Ground
TTITLE5=The Shoeshine
TTITLE6=Close Talker
TTITLE7=Why Don't You Like Your Job
TTITLE8=You're Falling Apart
TTITLE9=Parade Square Jamboree
TTITLE10=Gonna Get Smart
TTITLE11=Mr Clean's Got A Dirty Mind
TTITLE12=Such Behavior
EXTD=
EXTT0=
EXTT1=
EXTT2=
EXTT3=
EXTT4=
EXTT5=
EXTT6=
EXTT7=
EXTT8=
EXTT9=
EXTT10=
EXTT11=
EXTT12=
PLAYORDER=
